<svg width="38" height="38" viewBox="0 0 38 38" fill="none" xmlns="http://www.w3.org/2000/svg">
<path d="M38 19C38 29.4934 29.4934 38 19 38C8.50659 38 0 29.4934 0 19C0 8.50659 8.50659 0 19 0C29.4934 0 38 8.50659 38 19Z" fill="#D9D9D9"/>
<path d="M24 14C24 16.7614 21.7614 19 19 19C16.2386 19 14 16.7614 14 14C14 11.2386 16.2386 9 19 9C21.7614 9 24 11.2386 24 14Z" fill="black"/>
<path d="M31.0881 27.5C31.0881 30.8137 25.7156 33.5 19.0881 33.5C12.4607 33.5 7.08813 30.8137 7.08813 27.5C7.08813 24.1863 12.4607 21.5 19.0881 21.5C25.7156 21.5 31.0881 24.1863 31.0881 27.5Z" fill="black"/>
</svg>
